<?xml version="1.0" standalone="no"?>
<svg xmlns:xlink="http://www.w3.org/1999/xlink" id="wave" style="transform:rotate(0deg); transition: 0.3s" viewBox="0 0 1440 240" version="1.1" xmlns="http://www.w3.org/2000/svg"><defs><linearGradient id="sw-gradient-0" x1="0" x2="0" y1="1" y2="0"><stop stop-color="rgba(232, 245, 233, 1)" offset="0%"/><stop stop-color="rgba(232, 245, 233, 1)" offset="100%"/></linearGradient></defs><path style="transform:translate(0, 0px); opacity:1" fill="url(#sw-gradient-0)" d="M0,168L60,172C120,176,240,184,360,176C480,168,600,144,720,136C840,128,960,136,1080,120C1200,104,1320,64,1440,44C1560,24,1680,24,1800,24C1920,24,2040,24,2160,40C2280,56,2400,88,2520,84C2640,80,2760,40,2880,44C3000,48,3120,96,3240,132C3360,168,3480,192,3600,184C3720,176,3840,136,3960,132C4080,128,4200,160,4320,160C4440,160,4560,128,4680,100C4800,72,4920,48,5040,60C5160,72,5280,120,5400,120C5520,120,5640,72,5760,44C5880,16,6000,8,6120,8C6240,8,6360,16,6480,44C6600,72,6720,120,6840,116C6960,112,7080,56,7200,44C7320,32,7440,64,7560,72C7680,80,7800,64,7920,48C8040,32,8160,16,8280,28C8400,40,8520,80,8580,100L8640,120L8640,240L8580,240C8520,240,8400,240,8280,240C8160,240,8040,240,7920,240C7800,240,7680,240,7560,240C7440,240,7320,240,7200,240C7080,240,6960,240,6840,240C6720,240,6600,240,6480,240C6360,240,6240,240,6120,240C6000,240,5880,240,5760,240C5640,240,5520,240,5400,240C5280,240,5160,240,5040,240C4920,240,4800,240,4680,240C4560,240,4440,240,4320,240C4200,240,4080,240,3960,240C3840,240,3720,240,3600,240C3480,240,3360,240,3240,240C3120,240,3000,240,2880,240C2760,240,2640,240,2520,240C2400,240,2280,240,2160,240C2040,240,1920,240,1800,240C1680,240,1560,240,1440,240C1320,240,1200,240,1080,240C960,240,840,240,720,240C600,240,480,240,360,240C240,240,120,240,60,240L0,240Z"/></svg>